<svg width="486" height="120" viewBox="0 0 486 120" fill="none" xmlns="http://www.w3.org/2000/svg">
<rect x="279" y="120" width="120" height="40" rx="15" transform="rotate(-90 279 120)" fill="#47DA9C"/>
<rect x="249" width="120" height="43" rx="15" fill="#47DA9C"/>
<rect x="334" y="120" width="120" height="40" rx="15" transform="rotate(-90 334 120)" fill="#47DA9C"/>
<rect x="386" width="100" height="35" rx="15" fill="#232627"/>
<rect x="386" y="85" width="100" height="35" rx="15" fill="#232627"/>
<rect x="386" y="43" width="100" height="35" rx="15" fill="#232627"/>
<rect x="451" y="72" width="65" height="35" rx="15" transform="rotate(-90 451 72)" fill="#232627"/>
<rect x="386" y="111" width="65" height="35" rx="15" transform="rotate(-90 386 111)" fill="#232627"/>
<rect x="30" y="120" width="120" height="40" rx="15" transform="rotate(-90 30 120)" fill="#47DA9C"/>
<rect width="120" height="43" rx="15" fill="#47DA9C"/>
<rect x="85" y="120" width="120" height="40" rx="15" transform="rotate(-90 85 120)" fill="#47DA9C"/>
<rect x="137" width="100" height="35" rx="15" fill="#232627"/>
<rect x="137" y="85" width="100" height="35" rx="15" fill="#232627"/>
<rect x="137" y="43" width="100" height="35" rx="15" fill="#232627"/>
<rect x="202" y="72" width="65" height="35" rx="15" transform="rotate(-90 202 72)" fill="#232627"/>
<rect x="137" y="111" width="65" height="35" rx="15" transform="rotate(-90 137 111)" fill="#232627"/>
</svg>
