<svg width="48" height="48" viewBox="0 0 48 48" fill="none" xmlns="http://www.w3.org/2000/svg">
<path opacity="0.4" d="M24 48C37.2547 48 48 37.255 48 24C48 10.7452 37.2547 0 24 0C10.7452 0 0 10.7452 0 24C0 37.255 10.7452 48 24 48Z" fill="#47DA9C"/>
<path d="M24 11.8318C19.032 11.8318 15 15.8638 15 20.8317C15 25.7037 18.816 29.6637 23.88 29.8077H24.096H24.264H24.312C29.16 29.6397 32.976 25.7037 33 20.8317C33 15.8638 28.968 11.8318 24 11.8318Z" fill="#47DA9C"/>
<path d="M40.2735 41.6399C36.0015 45.5759 30.2895 47.9999 24.0015 47.9999C17.7135 47.9999 12.0015 45.5759 7.72949 41.6399C8.30549 39.4559 9.86549 37.4639 12.1455 35.9279C18.6975 31.5599 29.3535 31.5599 35.8575 35.9279C38.1615 37.4639 39.6975 39.4559 40.2735 41.6399Z" fill="#47DA9C"/>
</svg>
